<svg id="SvgjsSvg1008" xmlns="http://www.w3.org/2000/svg" version="1.1" xmlns:xlink="http://www.w3.org/1999/xlink" xmlns:svgjs="http://svgjs.com/svgjs" width="512" height="512" viewBox="0 0 32 32">
    <title>settings</title>
    <desc>Created with Avocode.</desc>
    <defs id="SvgjsDefs1009"></defs>
    <path
        id="SvgjsPath1010"
        d="M533.391 760.678L530.3259999999999 760.064C530.1719999999999 759.621 529.9909999999999 759.1909999999999 529.79 758.775L531.525 756.1709999999999C532.055 755.3789999999999 531.949 754.3219999999999 531.275 753.6479999999999L529.352 751.7239999999999C528.965 751.338 528.453 751.1379999999999 527.9359999999999 751.1379999999999C527.5529999999999 751.1379999999999 527.1659999999999 751.2479999999999 526.828 751.4739999999999L524.225 753.2099999999999C523.808 753.007 523.378 752.828 522.9350000000001 752.6729999999999L522.321 749.6079999999998C522.135 748.6719999999998 521.313 747.9999999999999 520.36 747.9999999999999H517.64C516.686 747.9999999999999 515.865 748.6719999999999 515.679 749.6079999999998L515.064 752.6729999999999C514.621 752.8279999999999 514.1909999999999 753.0079999999999 513.775 753.2099999999999L511.17199999999997 751.4739999999999C510.83299999999997 751.2479999999999 510.44699999999995 751.1379999999999 510.063 751.1379999999999C509.54699999999997 751.1379999999999 509.03499999999997 751.338 508.64799999999997 751.7239999999999L506.724 753.6479999999999C506.051 754.3219999999999 505.945 755.3789999999999 506.47499999999997 756.1709999999999L508.21 758.775C508.008 759.192 507.828 759.621 507.674 760.0649999999999L504.608 760.678C503.673 760.865 503 761.686 503 762.639V765.36C503 766.313 503.673 767.134 504.608 767.321L507.674 767.9350000000001C507.828 768.378 508.00899999999996 768.8080000000001 508.21 769.224L506.47499999999997 771.8280000000001C505.945 772.6200000000001 506.051 773.6770000000001 506.724 774.3510000000001L508.64799999999997 776.2750000000001C509.03499999999997 776.662 509.54699999999997 776.8610000000001 510.063 776.8610000000001C510.447 776.8610000000001 510.834 776.7510000000001 511.17199999999997 776.5250000000001L513.775 774.7900000000001C514.192 774.9920000000001 514.622 775.172 515.0649999999999 775.326L515.679 778.3910000000001C515.865 779.3270000000001 516.6859999999999 780.0000000000001 517.64 780.0000000000001H520.36C521.313 780.0000000000001 522.135 779.3270000000001 522.321 778.3910000000001L522.9350000000001 775.326C523.379 775.172 523.8090000000001 774.991 524.225 774.7900000000001L526.828 776.5250000000001C527.167 776.7510000000001 527.553 776.8610000000001 527.9359999999999 776.8610000000001C528.453 776.8610000000001 528.9649999999999 776.6620000000001 529.352 776.2750000000001L531.275 774.3510000000001C531.949 773.6770000000001 532.055 772.6200000000001 531.525 771.8280000000001L529.79 769.224C529.992 768.807 530.1719999999999 768.3770000000001 530.3259999999999 767.9340000000001L533.391 767.321C534.327 767.134 535 766.313 535 765.36V762.639C535 761.686 534.327 760.865 533.391 760.678ZM529.934 765.973C529.2389999999999 766.112 528.67 766.608 528.437 767.2769999999999C528.308 767.646 528.159 768.0039999999999 527.99 768.352C527.681 768.99 527.732 769.744 528.126 770.334L529.861 772.9369999999999L527.937 774.8609999999999L525.3340000000001 773.1259999999999C525.0000000000001 772.9029999999999 524.613 772.7889999999999 524.225 772.7889999999999C523.928 772.7889999999999 523.63 772.8559999999999 523.3530000000001 772.9889999999999C523.0070000000001 773.1569999999999 522.648 773.3079999999999 522.278 773.4369999999999C521.609 773.6699999999998 521.113 774.2389999999999 520.975 774.9329999999999L520.36 777.9999999999999H517.64L517.026 774.9329999999999C516.8879999999999 774.2389999999999 516.3919999999999 773.6699999999998 515.723 773.4369999999999C515.353 773.3079999999999 514.995 773.1589999999999 514.6469999999999 772.9899999999999C514.371 772.8559999999999 514.073 772.7889999999999 513.775 772.7889999999999C513.387 772.7889999999999 513 772.9029999999999 512.6659999999999 773.1259999999999L510.06199999999995 774.8609999999999L508.13899999999995 772.9369999999999L509.87399999999997 770.334C510.26699999999994 769.7439999999999 510.318 768.991 510.01099999999997 768.353C509.84299999999996 768.006 509.691 767.6479999999999 509.56199999999995 767.2779999999999C509.3299999999999 766.6089999999999 508.76099999999997 766.1129999999999 508.066 765.9739999999999L505.001 765.3599999999999L505 762.6389999999999L508.066 762.0259999999998C508.76099999999997 761.8869999999998 509.33 761.3909999999998 509.56199999999995 760.7219999999999C509.691 760.3529999999998 509.84099999999995 759.9949999999999 510.00999999999993 759.6469999999998C510.31899999999996 759.0089999999998 510.2679999999999 758.2549999999998 509.8739999999999 757.6659999999998L508.1389999999999 755.0619999999998L510.0619999999999 753.1379999999998L512.6659999999999 754.8739999999998C512.9999999999999 755.0959999999998 513.387 755.2089999999998 513.775 755.2089999999998C514.072 755.2089999999998 514.37 755.1429999999998 514.646 755.0099999999999C514.9929999999999 754.8419999999999 515.351 754.6909999999999 515.722 754.5619999999999C516.39 754.329 516.887 753.7599999999999 517.025 753.0659999999999L517.64 750.0009999999999L520.36 749.9999999999999L520.974 753.0659999999999C521.1120000000001 753.7599999999999 521.6080000000001 754.329 522.277 754.5619999999999C522.6460000000001 754.6909999999999 523.005 754.8399999999999 523.3520000000001 755.0089999999999C523.6290000000001 755.1429999999999 523.9270000000001 755.209 524.2250000000001 755.209C524.6130000000002 755.209 525.0000000000001 755.0959999999999 525.3340000000002 754.8739999999999L527.9370000000001 753.1379999999999L529.8610000000001 755.0619999999999L528.1260000000001 757.6659999999999C527.7330000000001 758.255 527.6820000000001 759.0079999999999 527.9890000000001 759.646C528.1570000000002 759.9929999999999 528.3080000000001 760.351 528.4370000000001 760.721C528.6700000000001 761.39 529.2390000000001 761.886 529.9340000000001 762.025L532.9990000000001 762.639L533.0000000000001 765.36ZM519 757C515.135 757 512 760.134 512 764C512 767.865 515.135 771 519 771C522.865 771 526 767.865 526 764C526 760.134 522.865 757 519 757ZM519 770.125C515.618 770.125 512.875 767.381 512.875 764C512.875 760.618 515.618 757.875 519 757.875C522.382 757.875 525.125 760.618 525.125 764C525.125 767.381 522.382 770.125 519 770.125ZM519 760C516.79 760 515 761.789 515 764C515 766.209 516.79 768 519 768C521.21 768 523 766.209 523 764C523 761.789 521.21 760 519 760ZM519 767C517.344 767 516 765.656 516 764C516 762.343 517.344 760.999 519 760.999C520.656 760.999 522 762.3430000000001 522 764C522 765.656 520.656 767 519 767Z "
        fill="#f4b60d"
        fill-opacity="1"
        transform="matrix(1,0,0,1,-503,-748)"></path>
</svg>
