<svg id="SvgjsSvg1000" xmlns="http://www.w3.org/2000/svg" version="1.1" xmlns:xlink="http://www.w3.org/1999/xlink" xmlns:svgjs="http://svgjs.com/svgjs" width="160" height="170" viewBox="0 0 16 17">
    <title>skype</title>
    <desc>Created with Avocode.</desc>
    <defs id="SvgjsDefs1001"></defs>
    <path
        id="SvgjsPath1007"
        d="M1535.83 57.0833C1535.8799999999999 56.734 1535.9199999999998 56.3802 1535.9199999999998 56.017900000000004C1535.9199999999998 52.0793 1532.7299999999998 48.8862 1528.7899999999997 48.8862C1528.4199999999998 48.8862 1528.0599999999997 48.9221 1527.7099999999998 48.976C1526.9999999999998 48.3684 1526.0799999999997 47.9991 1525.0699999999997 47.9991C1522.8199999999997 47.9991 1520.9999999999998 49.8204 1520.9999999999998 52.0667C1520.9999999999998 52.983599999999996 1521.3099999999997 53.8275 1521.8199999999997 54.5073C1521.7099999999998 54.9944 1521.6599999999996 55.4992 1521.6599999999996 56.0179C1521.6599999999996 59.958299999999994 1524.8499999999997 63.1515 1528.7899999999997 63.1515C1529.2899999999997 63.1515 1529.7899999999997 63.0967 1530.2599999999998 62.9961C1530.9799999999998 63.619299999999996 1531.9099999999999 63.9993 1532.9299999999998 63.9993C1535.1799999999998 63.9993 1536.9999999999998 62.1779 1536.9999999999998 59.9317C1536.9999999999998 58.821799999999996 1536.5499999999997 57.8163 1535.8299999999997 57.0833ZM1532.12 59.1243C1531.84 59.523399999999995 1531.4199999999998 59.8363 1530.8799999999999 60.0616C1530.34 60.289 1529.6999999999998 60.4015 1528.9599999999998 60.4015C1528.0699999999997 60.4015 1527.3299999999997 60.247499999999995 1526.7599999999998 59.937799999999996C1526.3499999999997 59.715799999999994 1526.0099999999998 59.419399999999996 1525.7599999999998 59.04709999999999C1525.4999999999998 58.67699999999999 1525.3699999999997 58.31569999999999 1525.3699999999997 57.96489999999999C1525.3699999999997 57.760799999999996 1525.4499999999996 57.586999999999996 1525.5999999999997 57.442499999999995C1525.7599999999998 57.29729999999999 1525.9499999999996 57.2247 1526.1899999999996 57.2247C1526.3799999999997 57.2247 1526.5499999999995 57.280499999999996 1526.6799999999996 57.3947C1526.8099999999997 57.5071 1526.9299999999996 57.6749 1527.0199999999995 57.8965C1527.1399999999994 58.161300000000004 1527.2599999999995 58.3812 1527.3899999999994 58.5578C1527.5299999999995 58.7356 1527.7099999999994 58.882 1527.9599999999994 58.9963C1528.1999999999994 59.111599999999996 1528.5199999999993 59.1692 1528.9099999999994 59.1692C1529.4499999999994 59.1692 1529.8899999999994 59.0541 1530.2299999999993 58.821799999999996C1530.5699999999993 58.590199999999996 1530.7399999999993 58.300999999999995 1530.7399999999993 57.953199999999995C1530.7399999999993 57.678999999999995 1530.6399999999994 57.4556 1530.4599999999994 57.284499999999994C1530.2799999999993 57.1125 1530.0399999999993 56.9815 1529.7499999999993 56.89059999999999C1529.4699999999993 56.80109999999999 1529.0799999999992 56.70419999999999 1528.5999999999992 56.60289999999999C1527.9499999999991 56.462999999999994 1527.4099999999992 56.29999999999999 1526.9699999999991 56.11459999999999C1526.529999999999 55.926999999999985 1526.1799999999992 55.67289999999999 1525.9299999999992 55.35069999999999C1525.6699999999992 55.02759999999999 1525.549999999999 54.62719999999999 1525.549999999999 54.14969999999999C1525.549999999999 53.69279999999999 1525.6799999999992 53.28819999999999 1525.9499999999991 52.93389999999999C1526.2199999999991 52.58009999999999 1526.6099999999992 52.306899999999985 1527.1299999999992 52.117299999999986C1527.6399999999992 51.926999999999985 1528.239999999999 51.832399999999986 1528.9299999999992 51.832399999999986C1529.489999999999 51.832399999999986 1529.9699999999991 51.894699999999986 1530.3699999999992 52.020699999999984C1530.7699999999993 52.146799999999985 1531.1099999999992 52.31449999999998 1531.3699999999992 52.523699999999984C1531.6399999999992 52.733699999999985 1531.8399999999992 52.953099999999985 1531.9599999999991 53.18309999999998C1532.079999999999 53.412399999999984 1532.1399999999992 53.63689999999998 1532.1399999999992 53.85449999999998C1532.1399999999992 54.05489999999998 1532.0699999999993 54.23579999999998 1531.9099999999992 54.39579999999998C1531.759999999999 54.55479999999998 1531.5699999999993 54.63579999999998 1531.3399999999992 54.63579999999998C1531.1299999999992 54.63579999999998 1530.9699999999993 54.58689999999998 1530.8599999999992 54.49129999999998C1530.7499999999993 54.39579999999998 1530.6299999999992 54.23849999999998 1530.5099999999993 54.01959999999998C1530.3399999999992 53.707399999999986 1530.1499999999994 53.461899999999986 1529.9199999999994 53.287399999999984C1529.6899999999994 53.11269999999998 1529.3199999999995 53.024399999999986 1528.8099999999995 53.024399999999986C1528.3399999999995 53.024399999999986 1527.9599999999996 53.11949999999999 1527.6699999999994 53.30979999999999C1527.3799999999994 53.49909999999999 1527.2399999999993 53.72889999999999 1527.2399999999993 53.99629999999999C1527.2399999999993 54.16219999999999 1527.2899999999993 54.30579999999999 1527.3799999999994 54.42599999999999C1527.4799999999993 54.547099999999986 1527.6199999999994 54.64969999999999 1527.7899999999995 54.736499999999985C1527.9599999999996 54.823599999999985 1528.1399999999994 54.89069999999999 1528.3099999999995 54.941799999999986C1528.4899999999996 54.989299999999986 1528.7799999999995 55.06169999999999 1529.1899999999996 55.155599999999986C1529.6899999999996 55.26479999999999 1530.1499999999996 55.385899999999985 1530.5699999999997 55.51759999999999C1530.9799999999998 55.64969999999999 1531.3299999999997 55.809699999999985 1531.6199999999997 55.99709999999999C1531.9099999999996 56.18679999999999 1532.1299999999997 56.425099999999986 1532.2899999999997 56.71299999999999C1532.4599999999998 57.00119999999999 1532.5399999999997 57.354599999999984 1532.5399999999997 57.77379999999999C1532.5399999999997 58.27379999999999 1532.3999999999996 58.72439999999999 1532.1199999999997 59.124299999999984Z "
        fill="#000000"
        fill-opacity="0.2"
        transform="matrix(1,0,0,1,-1521,-47)"></path>
</svg>
